<?xml version="1.0" standalone="no"?>
<!DOCTYPE svg PUBLIC "-//W3C//DTD SVG 20010904//EN"
 "http://www.w3.org/TR/2001/REC-SVG-20010904/DTD/svg10.dtd">
<svg version="1.0" xmlns="http://www.w3.org/2000/svg"
 width="173.000000pt" height="90.000000pt" viewBox="0 0 173.000000 90.000000"
 preserveAspectRatio="xMidYMid meet">

<g transform="translate(0.000000,90.000000) scale(0.100000,-0.100000)"
fill="#000000" stroke="none">
<path d="M0 806 l0 -95 33 -4 32 -4 -32 -1 c-33 -2 -33 -3 -33 -51 l0 -50 48
-4 47 -3 -47 -2 c-67 -3 -60 -20 10 -25 l57 -3 -55 -2 -55 -2 -3 -280 -4 -280
866 0 866 0 0 450 0 450 -865 0 -865 0 0 -94z m810 -3 l0 -38 -105 0 -105 0 0
38 0 37 105 0 105 0 0 -37z m177 -205 c-1 -46 -3 -9 -3 82 0 91 2 128 3 83 2
-46 2 -120 0 -165z m-500 86 c-3 -3 -12 -4 -19 -1 -8 3 -5 6 6 6 11 1 17 -2
13 -5z m1121 -31 c-27 -2 -69 -2 -95 0 -27 2 -5 3 47 3 52 0 74 -1 48 -3z
m-438 -108 c0 -8 -9 -15 -20 -15 -11 0 -20 7 -20 15 0 8 9 15 20 15 11 0 20
-7 20 -15z m-742 -52 c-16 -2 -40 -2 -55 0 -16 2 -3 4 27 4 30 0 43 -2 28 -4z
m682 -47 c0 -2 -7 -9 -15 -16 -12 -10 -15 -10 -15 4 0 9 7 16 15 16 8 0 15 -2
15 -4z m-232 -18 c-2 -6 -14 -18 -26 -26 -20 -13 -22 -13 -22 6 0 20 12 30 38
31 8 1 12 -4 10 -11z m-440 -5 c-10 -2 -28 -2 -40 0 -13 2 -5 4 17 4 22 1 32
-1 23 -4z m479 -9 c-3 -3 -12 -4 -19 -1 -8 3 -5 6 6 6 11 1 17 -2 13 -5z
m-254 -245 c-7 -7 -8 116 -1 131 1 3 3 -24 5 -59 2 -35 0 -68 -4 -72z m107 70
c0 -10 -4 -19 -10 -19 -5 0 -10 12 -10 26 0 14 4 23 10 19 6 -3 10 -15 10 -26z
m-273 -5 c-3 -3 -12 -4 -19 -1 -8 3 -5 6 6 6 11 1 17 -2 13 -5z m800 -156 c-3
-8 -6 -5 -6 6 -1 11 2 17 5 13 3 -3 4 -12 1 -19z"/>
</g>
</svg>
