<?xml version="1.0" encoding="utf-8"?>
<svg xmlns="http://www.w3.org/2000/svg"
	xmlns:xlink="http://www.w3.org/1999/xlink"
	width="25px" height="50px" viewBox="0 0 25 50">
<path fillRule="evenodd" d="M 4.33 50C 4.33 50 4.33 44.77 4.33 44.77 4.33 44.77 20.67 25 20.67 25 20.67 25 4.33 5.24 4.33 5.24 4.33 5.24 4.33 0 4.33 0 4.33 0 25 25 25 25 25 25 4.33 50 4.33 50ZM-0 0C-0 0-0-0-0-0-0-0 4.31-0 4.31-0 4.31-0 4.31 5.22 4.31 5.22 4.31 5.22-0 0-0 0ZM 4.31 44.78C 4.31 44.78 4.31 50 4.31 50 4.31 50 0 50 0 50 0 50 4.31 44.78 4.31 44.78Z" fill="rgb(236,81,93)"/></svg>