<?xml version="1.0" encoding="utf-8"?>
<svg xmlns="http://www.w3.org/2000/svg"
	xmlns:xlink="http://www.w3.org/1999/xlink"
	width="25px" height="50px" viewBox="0 0 25 50">
<path fillRule="evenodd" d="M 25 50C 25 50 25 43.97 25 43.97 25 43.97 25 43.97 25 43.97 25 43.97 25 50 25 50 25 50 25 50 25 50ZM 25-0C 25-0 25-0 25-0 25-0 25 5.91 25 5.91 25 5.91 25 5.91 25 5.91 25 5.91 25-0 25-0ZM 25-0C 25-0 4.33 25 4.33 25 4.33 25 25 50 25 50 25 50 20.66 50 20.66 50 20.66 50 20.66 49.98 20.66 49.98 20.66 49.98-0 25-0 25-0 25 20.66 0.02 20.66 0.02 20.66 0.02 20.66-0 20.66-0 20.66-0 25-0 25-0Z" fill="rgb(236,81,93)"/></svg>